<svg width="366" height="304" viewBox="0 0 366 304" fill="none" xmlns="http://www.w3.org/2000/svg">
<path d="M180.081 164.636C262.864 134.395 351.589 85.566 412 43.1999L463.55 7.04809C467.792 4.0737 473.6 7.12499 473.6 12.3053V163.062C473.6 165.154 472.572 167.121 470.848 168.305C356.176 247.033 217.861 261.441 200.4 241.6C187.513 226.955 179.228 191.533 175.974 171.529C175.488 168.539 177.236 165.675 180.081 164.636Z" fill="#4DA9FF"/>
<rect x="21.6001" y="246.4" width="32" height="38.4" rx="12.8" fill="#242945"/>
<rect x="160.8" y="246.4" width="32" height="38.4" rx="12.8" fill="#242945"/>
<rect y="73.5996" width="214.4" height="192" rx="6.4" fill="#F96C44"/>
<rect x="8.80005" y="86.4004" width="196.8" height="76.8" rx="6.4" fill="#F78956"/>
<rect x="8.80005" y="176" width="196.8" height="76.8" rx="6.4" fill="#F78956"/>
<rect x="53.6001" y="136.799" width="107.2" height="52.8" rx="3.2" fill="#F7C056"/>
<rect x="84.8" y="208.799" width="44.8" height="12.8" rx="3.2" fill="#F96C44"/>
<path fill-rule="evenodd" clip-rule="evenodd" d="M146.21 233.596C126.332 233.947 85.6264 239.874 69.7952 261.44C68.1875 264.074 66.6989 268.802 68.4852 273.259C61.2474 277.29 55.3664 284.487 65.1623 294.5C68.6772 298.093 82.3627 299.632 101.808 299.632C103.206 299.908 104.752 300.26 106.441 300.645C121.191 304.007 146.83 309.85 180 288.512V258.4H172.398C172.212 257.89 171.911 257.408 171.487 256.989L148.911 234.692C148.19 233.98 147.224 233.578 146.21 233.596Z" fill="#F4C7A9"/>
<path d="M68.8005 272.801C73.5659 275.819 82.4005 281.601 107.201 272.801" stroke="#ECB087" stroke-width="3.2"/>
<path d="M145.9 228.335L158.867 225.188C161.738 224.491 164.713 225.85 166.066 228.477L195.14 284.919C196.882 288.301 195.306 292.465 191.697 293.668C178.712 297.997 170.165 298.685 165.934 298.313C164.506 298.187 163.304 297.287 162.501 296.1C143.53 268.053 141.547 248.017 140.995 234.815C140.867 231.767 142.935 229.055 145.9 228.335Z" fill="#E9F4FF"/>
<path d="M160.081 219.036C242.864 188.796 331.589 139.966 392 97.6003L443.55 61.4485C447.792 58.4741 453.6 61.5254 453.6 66.7057V217.462C453.6 219.554 452.572 221.522 450.848 222.706C336.176 301.433 197.861 315.841 180.4 296C167.513 281.356 159.228 245.934 155.974 225.929C155.488 222.939 157.236 220.076 160.081 219.036Z" fill="#1B92FF"/>
</svg>
