<svg width="16" height="14" viewBox="0 0 16 14" fill="none" xmlns="http://www.w3.org/2000/svg">
<path d="M0.75 4.73135C0.75 8.16369 5.65 11.7389 5.65 11.7389C5.65 11.7389 7.05 12.7515 7.75 12.7515C8.45 12.7515 10.0833 11.6265 10.0833 11.6265C10.0833 11.6265 14.75 8.16369 14.75 4.73135C14.75 1.29902 10.9 -1.08684 7.75 2.62589C4.6 -1.08684 0.75 1.29902 0.75 4.73135Z" fill="#FF4F64"/>
<path d="M5.65 11.7389L5.20793 12.3448L5.21047 12.3466L5.65 11.7389ZM7.75 2.62589L7.1781 3.1111C7.32061 3.27906 7.52974 3.37589 7.75 3.37589C7.97027 3.37589 8.1794 3.27906 8.3219 3.1111L7.75 2.62589ZM10.0833 11.6265L10.5088 12.2441L10.5196 12.2366L10.5303 12.2288L10.0833 11.6265ZM5.65 11.7389C6.09206 11.133 6.09218 11.1331 6.09228 11.1332C6.09229 11.1332 6.09237 11.1333 6.09238 11.1333C6.09242 11.1333 6.09238 11.1333 6.09226 11.1332C6.09203 11.133 6.09151 11.1326 6.0907 11.132C6.08909 11.1308 6.08632 11.1288 6.08244 11.1259C6.07468 11.1202 6.06247 11.1111 6.04611 11.0988C6.01339 11.0741 5.9641 11.0366 5.90061 10.9871C5.77355 10.8881 5.59003 10.7413 5.36891 10.5542C4.92556 10.1789 4.33665 9.64587 3.75029 9.01267C3.16186 8.37723 2.59049 7.65646 2.16953 6.90701C1.74624 6.1534 1.5 5.41518 1.5 4.73135H0C0 5.76369 0.36626 6.7595 0.861716 7.64159C1.35951 8.52784 2.01314 9.34443 2.64971 10.0318C3.28835 10.7215 3.92444 11.2968 4.39984 11.6991C4.6381 11.9008 4.83739 12.0602 4.9783 12.1701C5.04879 12.225 5.10477 12.2677 5.14383 12.2971C5.16336 12.3118 5.17866 12.3232 5.18945 12.3312C5.19484 12.3352 5.1991 12.3383 5.20219 12.3406C5.20374 12.3417 5.205 12.3426 5.20595 12.3433C5.20643 12.3437 5.20684 12.344 5.20717 12.3442C5.20733 12.3443 5.20753 12.3445 5.20761 12.3445C5.20778 12.3447 5.20793 12.3448 5.65 11.7389ZM1.5 4.73135C1.5 3.28785 2.30706 2.12624 3.3556 1.6922C4.34699 1.28182 5.76541 1.44605 7.1781 3.1111L8.3219 2.14067C6.58459 0.0930032 4.50301 -0.406201 2.7819 0.306247C1.11794 0.995035 0 2.74252 0 4.73135H1.5ZM5.65 11.7389C5.21047 12.3466 5.21055 12.3467 5.21063 12.3467C5.21066 12.3468 5.21075 12.3468 5.21082 12.3469C5.21095 12.347 5.21111 12.3471 5.21129 12.3472C5.21165 12.3475 5.2121 12.3478 5.21263 12.3482C5.21369 12.3489 5.21509 12.35 5.21683 12.3512C5.22029 12.3537 5.22508 12.3571 5.23113 12.3614C5.24324 12.37 5.26041 12.3822 5.28212 12.3973C5.32552 12.4276 5.38728 12.4702 5.46325 12.5209C5.61447 12.6218 5.82541 12.7575 6.06189 12.8944C6.29612 13.0299 6.56829 13.1741 6.8401 13.2864C7.09408 13.3914 7.42395 13.5015 7.75 13.5015V12.0015C7.75067 12.0015 7.74247 12.0015 7.72396 11.9986C7.70571 11.9959 7.68104 11.9909 7.64955 11.9826C7.58551 11.9658 7.50626 11.9386 7.41303 11.9001C7.22546 11.8226 7.01638 11.7136 6.81311 11.596C6.61209 11.4797 6.42928 11.3623 6.29612 11.2734C6.2299 11.2291 6.17683 11.1926 6.14092 11.1675C6.12299 11.155 6.1094 11.1454 6.10065 11.1391C6.09628 11.136 6.09313 11.1338 6.09125 11.1324C6.09031 11.1318 6.08969 11.1313 6.0894 11.1311C6.08926 11.131 6.0892 11.131 6.08922 11.131C6.08923 11.131 6.08926 11.131 6.08931 11.131C6.08934 11.1311 6.08939 11.1311 6.0894 11.1311C6.08946 11.1312 6.08953 11.1312 5.65 11.7389ZM10.0833 11.6265C10.5303 12.2288 10.5304 12.2286 10.5306 12.2285C10.5307 12.2285 10.5309 12.2283 10.531 12.2282C10.5314 12.2279 10.5318 12.2276 10.5322 12.2273C10.5332 12.2266 10.5344 12.2257 10.5359 12.2246C10.5389 12.2223 10.543 12.2192 10.5482 12.2153C10.5586 12.2075 10.5733 12.1963 10.592 12.182C10.6295 12.1533 10.683 12.1117 10.7504 12.0582C10.8852 11.9511 11.0755 11.7958 11.303 11.5991C11.757 11.2066 12.3642 10.6446 12.9738 9.96809C14.156 8.65615 15.5 6.74823 15.5 4.73135H14C14 6.14681 13.0107 7.68644 11.8595 8.96398C11.3025 9.58216 10.743 10.1004 10.322 10.4644C10.112 10.646 9.93777 10.788 9.81728 10.8838C9.75708 10.9316 9.71039 10.9678 9.67947 10.9915C9.66401 11.0033 9.6525 11.0121 9.64523 11.0175C9.6416 11.0203 9.63902 11.0222 9.63754 11.0233C9.6368 11.0239 9.63633 11.0242 9.63614 11.0244C9.63605 11.0244 9.63602 11.0245 9.63607 11.0244C9.63609 11.0244 9.63618 11.0243 9.63619 11.0243C9.63629 11.0243 9.63641 11.0242 10.0833 11.6265ZM15.5 4.73135C15.5 2.74252 14.3821 0.995035 12.7181 0.306247C10.997 -0.406201 8.91541 0.0930032 7.1781 2.14067L8.3219 3.1111C9.73459 1.44605 11.153 1.28182 12.1444 1.6922C13.1929 2.12624 14 3.28785 14 4.73135H15.5ZM10.0833 11.6265C9.6579 11.0088 9.65796 11.0088 9.658 11.0087C9.65801 11.0087 9.65805 11.0087 9.65807 11.0087C9.6581 11.0087 9.65811 11.0087 9.65809 11.0087C9.65806 11.0087 9.65792 11.0088 9.6577 11.0089C9.65724 11.0093 9.6564 11.0098 9.65518 11.0107C9.65275 11.0123 9.64882 11.015 9.64348 11.0186C9.63279 11.0259 9.61644 11.0369 9.59505 11.0512C9.55224 11.0799 9.48945 11.1213 9.41162 11.1714C9.25529 11.2719 9.04155 11.4048 8.80913 11.5366C8.57436 11.6698 8.33322 11.7946 8.11991 11.884C8.01361 11.9286 7.92379 11.9603 7.85203 11.9801C7.7757 12.0011 7.74519 12.0015 7.75 12.0015V13.5015C8.08373 13.5015 8.43417 13.3788 8.69988 13.2674C8.9897 13.1458 9.28814 12.9894 9.5492 12.8413C9.81262 12.6919 10.051 12.5436 10.2228 12.4331C10.309 12.3777 10.3793 12.3313 10.4285 12.2984C10.4532 12.2819 10.4726 12.2688 10.4862 12.2596C10.4929 12.255 10.4983 12.2513 10.5021 12.2487C10.504 12.2474 10.5055 12.2464 10.5066 12.2456C10.5072 12.2452 10.5076 12.2449 10.508 12.2447C10.5082 12.2445 10.5083 12.2444 10.5084 12.2443C10.5085 12.2443 10.5086 12.2442 10.5086 12.2442C10.5087 12.2442 10.5088 12.2441 10.0833 11.6265Z" fill="#FF4F64"/>
</svg>
